<svg width="61" height="61" viewBox="0 0 61 61" fill="none" xmlns="http://www.w3.org/2000/svg">
<g clip-path="url(#clip0_1095_2907)">
<path d="M42.7877 1.00853C42.6603 0.86609 38.0685 1.06475 34.0727 5.40164C30.0769 9.73478 30.6917 14.7051 30.7816 14.8326C30.8716 14.96 36.4792 15.1587 40.0589 10.1171C43.6386 5.07553 42.9152 1.15472 42.7877 1.00853ZM55.2099 44.9884C55.03 44.6286 46.4949 40.3629 47.2896 32.1614C48.0842 23.9562 53.5681 21.7071 53.6543 21.4635C53.7405 21.2199 51.4165 18.5023 48.9538 17.1266C47.1457 16.1567 45.1445 15.601 43.0951 15.4998C42.6903 15.4886 41.2846 15.1437 38.3946 15.9346C36.4904 16.4556 32.1985 18.1424 31.0178 18.2099C29.8333 18.2774 26.3098 16.2532 22.5202 15.7172C20.095 15.2487 17.5236 16.2083 15.6831 16.9467C13.8464 17.6814 10.3529 19.773 7.90896 25.3318C5.46501 30.887 6.74321 39.6882 7.65782 42.4245C8.57242 45.1571 10.0006 49.6364 12.4295 52.905C14.5886 56.5934 17.4524 59.1536 18.6481 60.0232C19.8438 60.8928 23.2174 61.4701 25.5564 60.2743C27.4381 59.1198 30.8341 58.4564 32.176 58.5051C33.5142 58.5538 36.1531 59.0823 38.8557 60.5255C40.996 61.2639 43.0201 60.9565 45.048 60.1319C47.0759 59.3035 50.0109 56.1623 53.4369 49.7938C54.7376 46.8326 55.3298 45.232 55.2099 44.9884Z" fill="black"/>
<path d="M42.7877 1.00853C42.6603 0.86609 38.0685 1.06475 34.0727 5.40164C30.0769 9.73478 30.6917 14.7051 30.7816 14.8326C30.8716 14.96 36.4792 15.1587 40.0589 10.1171C43.6386 5.07553 42.9152 1.15472 42.7877 1.00853ZM55.2099 44.9884C55.03 44.6286 46.4949 40.3629 47.2896 32.1614C48.0842 23.9562 53.5681 21.7071 53.6543 21.4635C53.7405 21.2199 51.4165 18.5023 48.9538 17.1266C47.1457 16.1567 45.1445 15.601 43.0951 15.4998C42.6903 15.4886 41.2846 15.1437 38.3946 15.9346C36.4904 16.4556 32.1985 18.1424 31.0178 18.2099C29.8333 18.2774 26.3098 16.2532 22.5202 15.7172C20.095 15.2487 17.5236 16.2083 15.6831 16.9467C13.8464 17.6814 10.3529 19.773 7.90896 25.3318C5.46501 30.887 6.74321 39.6882 7.65782 42.4245C8.57242 45.1571 10.0006 49.6364 12.4295 52.905C14.5886 56.5934 17.4524 59.1536 18.6481 60.0232C19.8438 60.8928 23.2174 61.4701 25.5564 60.2743C27.4381 59.1198 30.8341 58.4564 32.176 58.5051C33.5142 58.5538 36.1531 59.0823 38.8557 60.5255C40.996 61.2639 43.0201 60.9565 45.048 60.1319C47.0759 59.3035 50.0109 56.1623 53.4369 49.7938C54.7376 46.8326 55.3298 45.232 55.2099 44.9884Z" fill="black"/>
</g>
<defs>
<clipPath id="clip0_1095_2907">
<rect width="59.9743" height="59.9743" fill="white" transform="translate(0.873535 0.980469)"/>
</clipPath>
</defs>
</svg>
