<svg width="51" height="47" viewBox="0 0 51 47" fill="none" xmlns="http://www.w3.org/2000/svg">
<path d="M40.0297 0.564453H10.8756C8.1151 0.56776 5.46864 1.66582 3.51669 3.61777C1.56474 5.56972 0.466686 8.21618 0.463379 10.9767L0.463379 35.9659C0.466686 38.7264 1.56474 41.3729 3.51669 43.3248C5.46864 45.2768 8.1151 46.3748 10.8756 46.3781H40.0297C42.7902 46.3748 45.4367 45.2768 47.3886 43.3248C49.3406 41.3729 50.4386 38.7264 50.4419 35.9659V10.9767C50.4386 8.21618 49.3406 5.56972 47.3886 3.61777C45.4367 1.66582 42.7902 0.56776 40.0297 0.564453ZM10.8756 4.72933H40.0297C41.2767 4.73178 42.4943 5.10733 43.526 5.80763C44.5578 6.50793 45.3563 7.50095 45.8189 8.6589L29.8716 24.6083C28.698 25.7772 27.1091 26.4335 25.4527 26.4335C23.7962 26.4335 22.2073 25.7772 21.0337 24.6083L5.08639 8.6589C5.54901 7.50095 6.34755 6.50793 7.37926 5.80763C8.41097 5.10733 9.62864 4.73178 10.8756 4.72933ZM40.0297 42.2132H10.8756C9.21868 42.2132 7.62965 41.555 6.45805 40.3834C5.28646 39.2118 4.62826 37.6228 4.62826 35.9659V14.1003L18.0891 27.5529C20.0438 29.5026 22.6919 30.5975 25.4527 30.5975C28.2134 30.5975 30.8615 29.5026 32.8162 27.5529L46.277 14.1003V35.9659C46.277 37.6228 45.6188 39.2118 44.4472 40.3834C43.2756 41.555 41.6866 42.2132 40.0297 42.2132Z" fill="black"/>
</svg>
