<svg width="196" height="196" viewBox="0 0 196 196" fill="none" xmlns="http://www.w3.org/2000/svg">
<path d="M98.0016 196C95.767 196 93.5418 195.925 91.3826 195.78C89.1575 195.632 86.9229 195.406 84.7449 195.107C83.7863 194.979 82.9188 194.85 82.0923 194.715C79.6377 194.315 77.1391 193.809 74.6656 193.206C73.817 193.002 72.9905 192.788 72.2047 192.568C71.9282 192.496 71.6453 192.417 71.3656 192.339C70.1713 192.002 69.0147 191.653 67.9335 191.301C67.8644 191.283 67.7827 191.254 67.701 191.229C66.7267 190.915 65.7084 190.566 64.6775 190.192C63.8069 189.878 62.9269 189.544 61.9872 189.174C58.9197 187.964 55.8649 186.571 52.9074 185.038C37.2181 176.891 23.996 164.637 14.6616 149.598C5.07262 134.129 0 116.287 0 97.9984C0 71.8213 10.1955 47.2093 28.704 28.7009C47.2125 10.1924 71.8244 0 98.0016 0C124.179 0 148.791 10.1924 167.302 28.7009C185.814 47.2093 196.006 71.8213 196.006 97.9984C196.006 113.38 192.543 128.104 185.716 141.76C179.204 154.784 169.672 166.41 158.144 175.376C152.647 179.654 146.694 183.35 140.443 186.354C139.736 186.697 138.979 187.046 138.067 187.458L137.967 187.502C137.857 187.552 137.75 187.599 137.64 187.646C136.955 187.951 136.257 188.25 135.569 188.532L135.257 188.664C135.072 188.743 134.887 188.818 134.698 188.891C132.171 189.912 129.578 190.839 126.985 191.635C125.062 192.232 123.047 192.785 120.995 193.278C113.518 195.082 105.78 195.997 98.0016 195.997V196ZM98.0016 0.638007C71.991 0.638007 47.5393 10.7644 29.1503 29.1566C10.7581 47.5362 0.628578 71.9879 0.628578 97.9984C0.628578 116.171 5.66977 133.897 15.2022 149.262C24.4737 164.203 37.6141 176.382 53.2028 184.475C56.1414 185.999 59.1775 187.382 62.2261 188.586C63.1595 188.957 64.0332 189.287 64.8975 189.598C65.9252 189.969 66.9341 190.314 67.9053 190.629C67.9807 190.654 68.053 190.676 68.1253 190.698C69.2064 191.05 70.3536 191.396 71.5416 191.732C71.8182 191.811 72.0947 191.889 72.3713 191.961C73.1539 192.178 73.9742 192.392 74.8165 192.596C77.2742 193.197 79.754 193.699 82.196 194.095C83.0163 194.231 83.8774 194.359 84.8297 194.488C86.992 194.784 89.2109 195.01 91.4235 195.155C93.567 195.299 95.7795 195.375 97.9984 195.375C105.727 195.375 113.414 194.466 120.847 192.675C122.887 192.185 124.889 191.635 126.8 191.044C129.374 190.252 131.954 189.334 134.465 188.316C134.654 188.243 134.833 188.168 135.012 188.092L135.383 187.935C136.046 187.662 136.719 187.373 137.385 187.077C137.498 187.03 137.602 186.983 137.706 186.936L137.806 186.892C138.711 186.483 139.463 186.134 140.167 185.795C146.377 182.809 152.295 179.138 157.754 174.886C169.207 165.973 178.68 154.423 185.151 141.483C191.933 127.916 195.375 113.285 195.375 98.0016C195.375 71.991 185.245 47.5393 166.853 29.1503C148.467 10.755 124.012 0.628578 98.0016 0.628578V0.638007Z" fill="#DDDEDF"/>
<path d="M89.1009 55.8932C89.1009 55.8932 71.8873 57.8355 70.7778 84.4903C69.8538 106.701 67.9618 119.081 76.9976 123.714C80.2285 125.37 84.0251 125.514 87.476 124.383L124.364 112.255C124.364 112.255 124.92 72.2739 112.148 62.5561C99.375 52.8383 89.104 55.8932 89.104 55.8932H89.1009Z" fill="#2F2E41"/>
<path d="M109.435 117.164L90.7667 123.302V96.4302H107.704L109.435 117.164Z" fill="#F6A6A9"/>
<path d="M134.585 188.602C132.07 189.62 129.506 190.534 126.894 191.339C124.93 191.949 122.937 192.492 120.923 192.976C113.571 194.749 105.893 195.686 98.0015 195.686C95.7827 195.686 93.5826 195.613 91.4046 195.466C89.1763 195.318 86.97 195.095 84.7888 194.796C83.9025 194.677 83.0225 194.548 82.1457 194.403C79.6471 193.998 77.1768 193.492 74.7442 192.898C73.9239 192.7 73.1067 192.489 72.2927 192.263C72.013 192.191 71.7333 192.112 71.4567 192.034C70.3095 191.71 69.1687 191.367 68.0372 191C67.9618 190.978 67.8832 190.952 67.8078 190.927C66.7958 190.6 65.7901 190.255 64.7906 189.893C63.8918 189.57 62.9992 189.23 62.1097 188.878L81.5045 125.043L82.3122 122.387L85.1785 112.955L85.2006 112.88L85.2226 112.811H119.093L119.32 113.914L124.873 141.081L128.874 160.661L132.809 179.905L134.428 187.825L134.585 188.602Z" fill="#DDDEDF"/>
<path d="M90.5655 112.827L88.2869 122.265L87.9695 123.588L87.8029 124.276L77.6954 166.174L71.4568 192.034C70.3096 191.71 69.1687 191.367 68.0373 191C67.9619 190.978 67.8833 190.952 67.8079 190.927C66.7959 190.6 65.7901 190.255 64.7907 189.893C63.8918 189.57 62.9992 189.23 62.1098 188.878C59.0109 187.656 55.9906 186.276 53.0583 184.755C59.6049 152.351 66.1767 120.492 67.2453 117.824C67.7136 116.651 69.0242 115.753 70.7999 115.061C71.3122 114.86 71.8653 114.678 72.4468 114.511C76.2591 113.424 81.3474 113.025 85.1629 112.883H85.2006C86.7218 112.83 88.0387 112.814 88.9878 112.814C89.937 112.814 90.5655 112.83 90.5655 112.83V112.827Z" fill="#DDDEDF"/>
<path d="M93.0766 103.869C103.351 103.869 111.679 95.5406 111.679 85.2666C111.679 74.9926 103.351 66.6638 93.0766 66.6638C82.8026 66.6638 74.4739 74.9926 74.4739 85.2666C74.4739 95.5406 82.8026 103.869 93.0766 103.869Z" fill="#F6A6A9"/>
<path d="M87.9915 62.8358C87.9915 62.8358 77.7551 104.4 89.1386 123.836L73.1036 120.429C73.1036 120.429 66.8901 74.9327 79.3862 66.6638L87.9946 62.8358H87.9915Z" fill="#2F2E41"/>
<path opacity="0.1" d="M84.7888 194.796C83.9026 194.677 83.0225 194.548 82.1457 194.403C79.6471 193.998 77.1768 193.492 74.7442 192.898C73.9239 192.7 73.1067 192.489 72.2927 192.263L73.3393 184.236L76.1333 162.792L77.3905 167.437L78.5471 171.715L84.7888 194.796Z" fill="#272223"/>
<path opacity="0.1" d="M137.517 187.36C136.832 187.665 136.144 187.961 135.449 188.247C135.345 188.291 135.242 188.335 135.138 188.379C134.956 188.454 134.773 188.529 134.588 188.602C132.074 189.62 129.509 190.535 126.897 191.339C120.693 186.948 115.913 180.832 113.153 173.748L111.683 169.974L102.26 142.681L123.135 164.584L126.951 170.624L132.812 179.902L137.52 187.357H137.517V187.36Z" fill="#272223"/>
<path d="M157.952 175.131C152.502 179.374 146.594 183.051 140.308 186.075C139.525 186.452 138.733 186.816 137.938 187.175C137.797 187.238 137.659 187.3 137.517 187.36C136.832 187.665 136.144 187.96 135.449 188.246C135.107 188.114 134.767 187.973 134.431 187.825C130.983 186.317 127.903 184.022 125.184 181.342C121.532 177.73 118.54 173.412 116.193 169.333C115.036 167.324 114.037 165.373 113.191 163.594L113.179 163.565C110.9 158.747 109.772 155.202 109.772 155.202L106.739 142.747L105.906 139.331L101.166 119.882L99.4442 112.811L102.015 112.698L109.039 112.39L116.787 112.047C118.572 112.182 120.313 112.515 121.988 113.037C127.366 114.687 132.042 118.213 135.113 123.066C143.555 136.414 157.072 159.957 157.955 175.131H157.952Z" fill="#DDDEDF"/>
<path d="M69.6873 104.146C73.7636 102.678 84.5531 102.672 89.3932 104.306C90.3329 104.624 90.9018 105.579 90.7383 106.557L90.5466 107.716C90.9678 107.653 91.3795 107.534 91.7692 107.355C92.9226 106.827 95.195 106.11 97.4893 107.254C99.0921 108.053 100.22 109.558 100.616 111.309C101.562 115.495 99.177 117.811 99.177 117.811L95.9995 120.794C93.3375 123.289 90.4335 125.514 87.3314 127.432L87.2686 127.469L88.4 120.662C89.038 121.784 90.4806 122.152 91.5775 121.473C94.3495 119.757 98.8784 116.318 98.3284 112.415C97.945 109.693 96.4332 109.115 94.9812 109.237C93.3564 109.376 91.9389 110.397 91.2443 111.871C91.0778 112.223 90.8043 112.512 90.4649 112.701L89.6478 113.147L87.2529 127.576C87.146 128.224 86.7312 128.783 86.1434 129.072C80.5114 131.835 74.433 130.402 72.3304 129.757C71.8496 129.61 71.4379 129.292 71.1801 128.858L70.7276 128.107C70.5704 127.85 70.4761 127.557 70.4447 127.259L68.3547 106.258C68.2635 105.331 68.8135 104.463 69.6904 104.146H69.6873Z" fill="#0C5DB4"/>
<path d="M88.9123 105.262C88.9123 105.755 84.6726 106.154 79.4428 106.154C74.213 106.154 69.9733 105.755 69.9733 105.262C69.9733 104.768 74.213 104.369 79.4428 104.369C84.6726 104.369 88.9123 104.768 88.9123 105.262Z" fill="#DEDFE0"/>
<path d="M93.4915 124.974C89.9275 119.851 89.7986 113.826 93.2024 111.513C96.6061 109.2 102.251 111.475 105.815 116.601C107.267 118.628 108.191 120.979 108.511 123.459L123.321 145.356L112.453 152.238L99.0073 129.924C96.779 128.742 94.887 127.045 93.4915 124.977V124.974Z" fill="#F6A6A9"/>
<path d="M102.257 142.684L114.495 131.42L138.693 153.951L116.189 169.333L102.257 142.684Z" fill="#DDDEDF"/>
<path opacity="0.1" d="M136.555 157.075L137.517 164.464L131.106 157.075V149.624L136.555 157.075Z" fill="#272223"/>
</svg>
