<svg width="602" height="611" viewBox="0 0 602 611" fill="none" xmlns="http://www.w3.org/2000/svg">
<path d="M392.708 162.643H292.054C289.85 162.65 287.674 162.154 285.692 161.193C283.709 160.232 281.971 158.831 280.611 157.097C279.226 155.347 278.259 153.304 277.783 151.124C277.307 148.944 277.334 146.683 277.864 144.515C287.14 105.659 287.14 65.1649 277.863 26.3088C277.334 24.1408 277.307 21.8808 277.783 19.7006C278.259 17.5204 279.226 15.4776 280.611 13.7275C281.971 11.9937 283.708 10.593 285.691 9.63195C287.674 8.67093 289.85 8.17493 292.054 8.18171H392.708C396.184 8.1917 399.542 9.43493 402.187 11.69C404.831 13.945 406.589 17.0655 407.147 20.4955C413.772 63.5199 413.772 107.305 407.147 150.329C406.589 153.759 404.831 156.88 402.187 159.135C399.542 161.39 396.184 162.633 392.708 162.643Z" fill="#E6E6E6"/>
<path d="M292.054 15.7559C290.996 15.7523 289.951 15.9902 288.998 16.4514C288.046 16.9126 287.211 17.5849 286.558 18.4172C285.885 19.2701 285.415 20.2651 285.185 21.3267C284.954 22.3883 284.969 23.4885 285.228 24.5436C294.782 64.5608 294.782 106.265 285.228 146.282C284.969 147.337 284.954 148.437 285.185 149.499C285.415 150.56 285.884 151.555 286.557 152.408C287.211 153.24 288.046 153.913 288.998 154.375C289.951 154.836 290.996 155.074 292.054 155.07H392.708C394.377 155.071 395.992 154.479 397.266 153.4C398.539 152.321 399.388 150.826 399.662 149.179C406.168 106.917 406.168 63.9086 399.662 21.6468C399.388 20.0005 398.539 18.5047 397.266 17.4259C395.992 16.3471 394.377 15.7553 392.708 15.7559L292.054 15.7559Z" fill="white"/>
<path d="M370.744 52.1744H317.925C315.917 52.1722 313.992 51.3736 312.572 49.9538C311.152 48.534 310.354 46.609 310.352 44.6011V41.6416C310.354 39.6337 311.152 37.7087 312.572 36.2889C313.992 34.8692 315.917 34.0706 317.925 34.0684H370.744C372.752 34.0706 374.677 34.8692 376.097 36.2889C377.516 37.7087 378.315 39.6337 378.317 41.6416V44.6012C378.315 46.6091 377.516 48.5341 376.097 49.9539C374.677 51.3736 372.752 52.1722 370.744 52.1744Z" fill="#E6E6E6"/>
<path d="M370.744 89.5708H317.925C315.917 89.5687 313.992 88.77 312.572 87.3503C311.152 85.9305 310.354 84.0055 310.352 81.9976V79.0381C310.354 77.0302 311.152 75.1052 312.572 73.6854C313.992 72.2656 315.917 71.467 317.925 71.4648H370.744C372.752 71.467 374.677 72.2656 376.097 73.6854C377.516 75.1052 378.315 77.0302 378.317 79.0381V81.9976C378.315 84.0055 377.516 85.9305 376.097 87.3503C374.677 88.77 372.752 89.5687 370.744 89.5708Z" fill="#E6E6E6"/>
<path d="M370.744 126.967H317.925C315.917 126.965 313.992 126.167 312.572 124.747C311.152 123.327 310.354 121.402 310.352 119.394V116.435C310.354 114.427 311.152 112.502 312.572 111.082C313.992 109.662 315.917 108.864 317.925 108.861H370.744C372.752 108.864 374.677 109.662 376.097 111.082C377.516 112.502 378.315 114.427 378.317 116.435V119.394C378.315 121.402 377.516 123.327 376.097 124.747C374.677 126.167 372.752 126.965 370.744 126.967Z" fill="#E6E6E6"/>
<path d="M582.047 258.579H481.393C479.189 258.585 477.013 258.089 475.03 257.128C473.047 256.167 471.31 254.767 469.95 253.033C468.565 251.283 467.598 249.24 467.121 247.059C466.645 244.879 466.673 242.619 467.202 240.451C476.479 201.595 476.479 161.1 467.202 122.244C466.673 120.076 466.645 117.816 467.122 115.636C467.598 113.456 468.565 111.413 469.949 109.663C471.309 107.929 473.047 106.529 475.03 105.567C477.013 104.606 479.189 104.11 481.393 104.117H582.047C585.522 104.127 588.881 105.37 591.525 107.626C594.17 109.881 595.928 113.001 596.486 116.431C603.11 159.455 603.11 203.24 596.486 246.265C595.928 249.695 594.17 252.815 591.525 255.07C588.881 257.325 585.522 258.569 582.047 258.579Z" fill="#E6E6E6"/>
<path d="M481.393 111.688C480.335 111.684 479.29 111.922 478.337 112.383C477.385 112.844 476.55 113.517 475.896 114.349C475.224 115.202 474.754 116.197 474.523 117.258C474.293 118.32 474.308 119.42 474.566 120.475C484.121 160.492 484.121 202.197 474.567 242.214C474.308 243.269 474.293 244.369 474.524 245.43C474.754 246.492 475.223 247.487 475.896 248.339C476.549 249.172 477.385 249.845 478.337 250.306C479.29 250.767 480.335 251.005 481.393 251.002H582.047C583.716 251.002 585.331 250.411 586.604 249.332C587.878 248.253 588.727 246.757 589.001 245.111C595.507 202.849 595.507 159.84 589.001 117.578C588.727 115.932 587.878 114.436 586.604 113.358C585.331 112.279 583.716 111.687 582.047 111.688L481.393 111.688Z" fill="white"/>
<path d="M381.347 367.763H280.693C278.394 367.77 276.124 367.252 274.055 366.249C271.986 365.247 270.173 363.785 268.754 361.977C267.31 360.152 266.302 358.021 265.805 355.748C265.309 353.474 265.337 351.117 265.889 348.857C275.143 310.097 275.142 269.704 265.889 230.945C265.337 228.684 265.308 226.327 265.805 224.054C266.302 221.78 267.31 219.65 268.754 217.825C270.173 216.016 271.986 214.555 274.055 213.552C276.124 212.55 278.394 212.032 280.693 212.039H381.347C384.973 212.05 388.477 213.347 391.236 215.7C393.994 218.053 395.828 221.309 396.41 224.888C403.044 267.976 403.044 311.826 396.41 354.914C395.828 358.493 393.994 361.748 391.236 364.101C388.477 366.454 384.973 367.752 381.347 367.763Z" fill="#F2F2F2"/>
<path d="M560.082 167.038H507.263C505.255 167.035 503.33 166.237 501.91 164.817C500.49 163.397 499.692 161.472 499.689 159.464V156.505C499.692 154.497 500.49 152.572 501.91 151.152C503.33 149.732 505.255 148.934 507.263 148.932H560.082C562.09 148.934 564.015 149.732 565.435 151.152C566.854 152.572 567.653 154.497 567.655 156.505V159.464C567.653 161.472 566.854 163.397 565.435 164.817C564.015 166.237 562.09 167.035 560.082 167.038Z" fill="#E6E6E6"/>
<path d="M560.082 204.434H507.263C505.255 204.432 503.33 203.633 501.91 202.214C500.49 200.794 499.692 198.869 499.689 196.861V193.901C499.692 191.893 500.49 189.968 501.91 188.549C503.33 187.129 505.255 186.33 507.263 186.328H560.082C562.09 186.33 564.015 187.129 565.435 188.549C566.854 189.968 567.653 191.893 567.655 193.901V196.861C567.653 198.869 566.854 200.794 565.435 202.214C564.015 203.633 562.09 204.432 560.082 204.434Z" fill="#E6E6E6"/>
<path d="M331.302 318.411C347.336 318.411 360.334 305.413 360.334 289.38C360.334 273.346 347.336 260.348 331.302 260.348C315.269 260.348 302.271 273.346 302.271 289.38C302.271 305.413 315.269 318.411 331.302 318.411Z" fill="white"/>
<path d="M345.188 285.59H335.09V275.492C335.09 274.488 334.691 273.524 333.981 272.814C333.271 272.104 332.308 271.705 331.303 271.705C330.299 271.705 329.336 272.104 328.626 272.814C327.916 273.524 327.517 274.488 327.517 275.492V285.59H317.419C316.414 285.59 315.451 285.989 314.741 286.699C314.031 287.409 313.632 288.372 313.632 289.377C313.632 290.381 314.031 291.344 314.741 292.054C315.451 292.764 316.414 293.163 317.419 293.163H327.517V303.262C327.517 304.266 327.916 305.229 328.626 305.939C329.336 306.649 330.299 307.048 331.303 307.048C332.308 307.048 333.271 306.649 333.981 305.939C334.691 305.229 335.09 304.266 335.09 303.262V293.163H345.188C346.193 293.163 347.156 292.764 347.866 292.054C348.576 291.344 348.975 290.381 348.975 289.377C348.975 288.372 348.576 287.409 347.866 286.699C347.156 285.989 346.193 285.59 345.188 285.59Z" fill="#E6E6E6"/>
<path d="M367.908 22.4115H314.894C313.388 22.4098 311.944 21.8108 310.879 20.7459C309.814 19.6811 309.215 18.2373 309.213 16.7313V6.63328C309.215 5.12733 309.814 3.68355 310.879 2.61868C311.944 1.55381 313.388 0.954822 314.894 0.953125H367.908C369.414 0.954822 370.858 1.55381 371.923 2.61868C372.988 3.68355 373.587 5.12733 373.589 6.63328V16.7313C373.587 18.2373 372.988 19.6811 371.923 20.7459C370.858 21.8108 369.414 22.4098 367.908 22.4115Z" fill="#CCCCCC"/>
<path d="M559.772 119.607H506.757C505.251 119.605 503.807 119.006 502.742 117.941C501.677 116.876 501.078 115.433 501.077 113.927V103.829C501.078 102.323 501.677 100.879 502.742 99.814C503.807 98.7491 505.251 98.1501 506.757 98.1484H559.772C561.278 98.1501 562.721 98.7491 563.786 99.814C564.851 100.879 565.45 102.323 565.452 103.829V113.927C565.45 115.433 564.851 116.876 563.786 117.941C562.721 119.006 561.278 119.605 559.772 119.607Z" fill="#CCCCCC"/>
<path d="M100.038 595.555H115.513L120.352 535.865H100.036L100.038 595.555Z" fill="#FFB8B8"/>
<path d="M96.0908 590.501L126.567 590.5H126.568C129.118 590.5 131.644 591.002 134 591.978C136.357 592.954 138.498 594.385 140.301 596.188C142.105 597.992 143.535 600.133 144.511 602.489C145.487 604.845 145.989 607.371 145.989 609.921V610.553L96.0918 610.554L96.0908 590.501Z" fill="#2F2E41"/>
<path d="M16.7291 595.555H32.2044L39.5671 535.865H16.7266L16.7291 595.555Z" fill="#FFB8B8"/>
<path d="M12.7817 590.501L43.2574 590.5H43.2587C45.8092 590.5 48.3347 591.002 50.6911 591.978C53.0474 592.954 55.1885 594.385 56.9919 596.188C58.7954 597.992 60.226 600.133 61.202 602.489C62.1781 604.845 62.6804 607.371 62.6804 609.921V610.553L12.7827 610.554L12.7817 590.501Z" fill="#2F2E41"/>
<path d="M19.4744 576.698C17.8958 576.698 16.3751 576.104 15.2143 575.034C14.5912 574.465 14.0893 573.777 13.7389 573.01C13.3884 572.243 13.1966 571.412 13.1748 570.569L6.96875 348.143L95.0884 370.172L122.277 451.736C125.783 462.229 127.301 473.283 126.752 484.333L123.376 563.396C123.299 565.016 122.601 566.544 121.427 567.662C120.253 568.781 118.693 569.404 117.072 569.403H102.292C100.767 569.397 99.2945 568.841 98.1457 567.837C96.9969 566.833 96.2486 565.449 96.0379 563.938L85.4742 476.664C84.5511 469.855 82.1694 463.326 78.4917 457.523L57.703 424.608C57.5639 424.388 57.3604 424.216 57.1202 424.117C56.88 424.017 56.6148 423.994 56.361 424.05C56.1071 424.107 55.877 424.241 55.702 424.433C55.527 424.626 55.4157 424.867 55.3834 425.125L39.0692 570.397C38.8941 571.87 38.2047 573.234 37.1225 574.25C36.0403 575.265 34.6347 575.865 33.153 575.946L19.8337 576.687C19.7139 576.694 19.5943 576.698 19.4744 576.698Z" fill="#2F2E41"/>
<path d="M80.4247 204.137C97.5468 204.137 111.427 190.257 111.427 173.135C111.427 156.013 97.5468 142.133 80.4247 142.133C63.3026 142.133 49.4224 156.013 49.4224 173.135C49.4224 190.257 63.3026 204.137 80.4247 204.137Z" fill="#FFB8B8"/>
<path d="M94.6667 379.214C94.1332 379.214 93.602 379.146 93.0852 379.013L5.65488 356.596C4.09173 356.196 2.74136 355.212 1.8814 353.846C1.02144 352.481 0.71724 350.838 1.0314 349.256L21.1103 241.092C22.3613 234.839 25.111 228.984 29.1234 224.028C33.1357 219.073 38.2909 215.165 44.1462 212.641C49.8514 210.116 56.0905 209.034 62.3129 209.491C68.5352 209.948 74.5494 211.929 79.8247 215.26C81.0487 216.024 82.2817 216.857 83.4885 217.735C88.3468 221.319 92.3087 225.98 95.0635 231.352C97.8183 236.724 99.291 242.661 99.3662 248.698L100.963 372.814C100.974 373.648 100.819 374.477 100.508 375.252C100.196 376.026 99.7345 376.731 99.1491 377.327C98.5637 377.922 97.8661 378.395 97.0968 378.719C96.3274 379.043 95.5015 379.211 94.6667 379.214Z" fill="#3097CB"/>
<path d="M14.6506 380.489C13.6076 378.954 12.9139 377.209 12.6182 375.377C12.3225 373.546 12.4322 371.671 12.9393 369.886C13.4464 368.101 14.3387 366.449 15.5534 365.046C16.7681 363.643 18.2756 362.524 19.9698 361.767L16.081 316.828L36.6886 327.997L37.2221 368.959C38.3055 371.89 38.2763 375.116 37.1401 378.026C36.004 380.936 33.8397 383.329 31.0575 384.75C28.2752 386.171 25.0683 386.522 22.0445 385.737C19.0206 384.952 16.3897 383.084 14.6506 380.489Z" fill="#FFB8B8"/>
<path d="M22.0136 355.823C21.4321 355.822 20.853 355.749 20.2897 355.605C19.0781 355.296 17.9725 354.665 17.09 353.779C16.2074 352.893 15.5807 351.785 15.2761 350.573L5.14877 310.327C1.60954 296.271 3.29671 281.408 9.89641 268.503L31.1135 226.997C32.4547 222.028 35.6953 217.785 40.1365 215.183C44.5777 212.581 49.8636 211.829 54.8542 213.089C57.3416 213.717 59.6796 214.833 61.7326 216.371C63.7856 217.91 65.5127 219.841 66.8139 222.052C68.1418 224.295 69.0103 226.779 69.3687 229.361C69.7271 231.942 69.5684 234.569 68.9017 237.089L38.6991 304.627L39.0578 345.065C39.0671 346.491 38.6381 347.886 37.8289 349.061C37.0198 350.236 35.8694 351.134 34.5332 351.634L24.4259 355.388C23.6541 355.675 22.8372 355.822 22.0136 355.823Z" fill="#3097CB"/>
<path d="M166.587 363.957C164.743 363.746 162.968 363.134 161.387 362.163C159.805 361.192 158.456 359.886 157.434 358.338C156.412 356.789 155.742 355.035 155.471 353.199C155.2 351.363 155.335 349.49 155.866 347.713L119.269 321.345L141.177 313.012L172.572 339.328C175.5 340.419 177.926 342.545 179.39 345.305C180.855 348.065 181.256 351.266 180.519 354.301C179.781 357.337 177.955 359.997 175.387 361.777C172.819 363.556 169.688 364.332 166.587 363.957Z" fill="#FFB8B8"/>
<path d="M147.428 344.706C146.349 344.705 145.285 344.454 144.32 343.972L107.21 325.395C94.2486 318.907 84.084 307.933 78.6067 294.513L60.989 251.356C58.0979 247.098 56.996 241.873 57.9211 236.81C58.8461 231.746 61.724 227.249 65.9342 224.288C68.0378 222.809 70.4147 221.763 72.9265 221.212C75.4382 220.661 78.0346 220.615 80.5642 221.078C83.1235 221.538 85.5661 222.501 87.7503 223.912C89.9346 225.323 91.8171 227.154 93.2888 229.298L124.776 296.247L155.658 322.354C156.745 323.277 157.523 324.512 157.886 325.892C158.249 327.272 158.179 328.73 157.686 330.069L153.937 340.177C153.448 341.503 152.564 342.647 151.404 343.454C150.238 344.269 148.85 344.706 147.428 344.706Z" fill="#3097CB"/>
<path d="M73.9147 204.608C75.5619 205.328 78.9351 192.203 77.4241 189.578C75.177 185.674 75.3098 185.702 73.8181 183.119C72.3263 180.536 71.9926 177.001 73.9243 174.728C75.8561 172.455 80.3265 172.757 81.2081 175.606C80.641 170.194 85.9944 165.843 91.2973 164.621C96.6002 163.398 102.194 164.157 107.526 163.069C113.714 161.807 120.152 156.619 117.683 149.815C117.26 148.682 116.625 147.639 115.814 146.742C112.961 143.535 108.971 142.165 105.07 140.841C96.9532 138.086 88.6148 135.297 80.049 135.601C72.9912 135.97 66.194 138.388 60.4894 142.56C54.7847 146.732 50.4199 152.477 47.9291 159.091C47.3388 160.745 46.8815 162.444 46.5615 164.172C43.6214 179.98 52.8017 195.574 67.7122 201.594L73.9147 204.608Z" fill="#2F2E41"/>
<path opacity="0.2" d="M37.3086 345.982L38.0117 304.417L60.0292 260.148L42.3576 305.59L37.3086 345.982Z" fill="black"/>
<path d="M236.969 450.293L144.019 411.674C141.981 410.834 140.162 409.542 138.7 407.893C137.237 406.245 136.17 404.285 135.579 402.162C134.972 400.014 134.862 397.757 135.259 395.561C135.656 393.364 136.549 391.288 137.87 389.489C161.345 357.166 176.882 319.771 183.223 280.329C183.566 278.124 184.408 276.026 185.684 274.196C186.96 272.365 188.637 270.85 190.587 269.765C192.509 268.686 194.651 268.059 196.851 267.932C199.051 267.806 201.251 268.182 203.283 269.034L296.234 307.654C299.439 308.996 302.064 311.433 303.64 314.53C305.217 317.627 305.643 321.183 304.843 324.565C294.453 366.838 277.653 407.272 255.028 444.462C253.196 447.415 250.375 449.622 247.068 450.69C243.761 451.758 240.182 451.617 236.969 450.293Z" fill="#E6E6E6"/>
<path d="M200.377 276.03C199.401 275.621 198.344 275.439 197.288 275.5C196.231 275.56 195.203 275.861 194.28 276.379C193.331 276.908 192.516 277.647 191.895 278.539C191.275 279.431 190.867 280.452 190.701 281.526C184.17 322.146 168.169 360.659 143.992 393.947C143.348 394.822 142.913 395.832 142.718 396.901C142.523 397.969 142.575 399.068 142.869 400.114C143.153 401.133 143.666 402.075 144.369 402.867C145.072 403.658 145.945 404.279 146.924 404.682L239.875 443.301C241.416 443.942 243.134 444.015 244.724 443.507C246.314 443 247.672 441.944 248.556 440.529C270.78 403.998 287.282 364.281 297.488 322.757C297.867 321.132 297.657 319.425 296.895 317.94C296.133 316.455 294.869 315.289 293.327 314.649L200.377 276.03Z" fill="white"/>
<path d="M249.87 362.001L201.094 341.735C199.24 340.962 197.769 339.486 197.003 337.63C196.236 335.775 196.237 333.691 197.006 331.835L198.141 329.102C198.914 327.249 200.39 325.778 202.246 325.011C204.102 324.245 206.186 324.246 208.041 325.015L256.817 345.28C258.671 346.053 260.142 347.529 260.908 349.385C261.675 351.241 261.674 353.325 260.905 355.18L259.77 357.913C258.997 359.766 257.521 361.237 255.665 362.004C253.809 362.77 251.725 362.769 249.87 362.001Z" fill="#3097CB"/>
<path d="M235.522 396.532L186.746 376.266C184.892 375.494 183.421 374.018 182.655 372.162C181.888 370.306 181.889 368.222 182.658 366.367L183.793 363.634C184.566 361.78 186.042 360.309 187.898 359.543C189.753 358.776 191.838 358.777 193.693 359.546L242.469 379.812C244.323 380.584 245.794 382.06 246.56 383.916C247.327 385.772 247.325 387.856 246.557 389.711L245.422 392.444C244.649 394.298 243.173 395.769 241.317 396.535C239.461 397.302 237.377 397.3 235.522 396.532Z" fill="#3097CB"/>
<path d="M269.415 313.463C268.684 313.463 267.961 313.321 267.285 313.046L218.135 293.175C216.74 292.609 215.626 291.512 215.038 290.126C214.449 288.74 214.435 287.177 214.998 285.78L218.783 276.418C219.348 275.021 220.444 273.906 221.831 273.318C223.218 272.73 224.782 272.717 226.178 273.281L275.328 293.153C276.724 293.719 277.838 294.815 278.426 296.201C279.014 297.588 279.028 299.151 278.465 300.547L274.68 309.91C274.255 310.958 273.527 311.856 272.589 312.489C271.651 313.122 270.546 313.461 269.415 313.463Z" fill="#CCCCCC"/>
</svg>
