<svg width="51" height="51" viewBox="0 0 51 51" fill="none" xmlns="http://www.w3.org/2000/svg">
<path fill-rule="evenodd" clip-rule="evenodd" d="M21.0238 32.7369C22.3242 33.6185 23.9091 34.1516 25.5956 34.1516C30.0658 34.1516 33.7029 30.4817 33.7029 25.9713C33.7029 24.2697 33.1746 22.6706 32.3009 21.3584L30.0861 23.5931C30.4519 24.2902 30.655 25.1103 30.655 25.9713C30.655 28.7801 28.3793 31.0763 25.5956 31.0763C24.7422 31.0763 23.9294 30.8713 23.2386 30.5022L21.0238 32.7369ZM38.9862 14.6141C41.9325 17.3203 44.4318 20.9697 46.3011 25.357C46.4637 25.7466 46.4637 26.1976 46.3011 26.5666C41.9528 36.7765 34.2112 42.8861 25.5959 42.8861H25.5756C21.654 42.8861 17.8949 41.5945 14.5829 39.2368L10.641 43.2141C10.3362 43.5216 9.95015 43.6651 9.56408 43.6651C9.17802 43.6651 8.77164 43.5216 8.48717 43.2141C7.97919 42.7016 7.89791 41.8815 8.3043 41.2869L8.36525 41.2049L38.4173 10.8828C38.4579 10.8418 38.4986 10.8008 38.5189 10.7598C38.5595 10.7188 38.6002 10.6778 38.6205 10.6368L40.5305 8.70959C41.1401 8.11503 42.0951 8.11503 42.6843 8.70959C43.2939 9.30414 43.2939 10.2882 42.6843 10.8828L38.9862 14.6141ZM17.4739 25.9781C17.4739 26.5111 17.5348 27.0442 17.6161 27.5362L10.098 35.1219C8.06612 32.7437 6.29835 29.8734 4.89633 26.5726C4.73378 26.2036 4.73378 25.7526 4.89633 25.363C9.24463 15.1531 16.9862 9.06411 25.5812 9.06411H25.6015C28.5072 9.06411 31.3316 9.76117 33.9324 11.0733L27.1458 17.9209C26.6581 17.8389 26.1298 17.7774 25.6015 17.7774C21.111 17.7774 17.4739 21.4472 17.4739 25.9781Z" fill="#9E9E9E"/>
</svg>
