<svg width="41" height="49" viewBox="0 0 41 49" fill="none" xmlns="http://www.w3.org/2000/svg">
<path d="M34.4493 17.8193V14.9725C34.4493 11.2611 32.9749 7.70164 30.3505 5.07726C27.7261 2.45288 24.1667 0.978516 20.4553 0.978516C16.7438 0.978516 13.1844 2.45288 10.56 5.07726C7.93566 7.70164 6.46129 11.2611 6.46129 14.9725V17.8193C4.68078 18.5964 3.16529 19.8754 2.10016 21.5001C1.03503 23.1248 0.466423 25.0247 0.463867 26.9674V38.9622C0.467042 41.6122 1.52118 44.1529 3.39505 46.0267C5.26892 47.9006 7.80952 48.9547 10.4596 48.9579H30.451C33.101 48.9547 35.6417 47.9006 37.5155 46.0267C39.3894 44.1529 40.4435 41.6122 40.4467 38.9622V26.9674C40.4441 25.0247 39.8755 23.1248 38.8104 21.5001C37.7453 19.8754 36.2298 18.5964 34.4493 17.8193ZM10.4596 14.9725C10.4596 12.3215 11.5127 9.77903 13.3873 7.90447C15.2618 6.02991 17.8043 4.9768 20.4553 4.9768C23.1063 4.9768 25.6488 6.02991 27.5233 7.90447C29.3979 9.77903 30.451 12.3215 30.451 14.9725V16.9716H10.4596V14.9725ZM36.4484 38.9622C36.4484 40.5528 35.8165 42.0783 34.6918 43.203C33.5671 44.3278 32.0416 44.9596 30.451 44.9596H10.4596C8.86896 44.9596 7.34349 44.3278 6.21876 43.203C5.09402 42.0783 4.46215 40.5528 4.46215 38.9622V26.9674C4.46215 25.3767 5.09402 23.8513 6.21876 22.7265C7.34349 21.6018 8.86896 20.9699 10.4596 20.9699H30.451C32.0416 20.9699 33.5671 21.6018 34.6918 22.7265C35.8165 23.8513 36.4484 25.3767 36.4484 26.9674V38.9622Z" fill="black"/>
<path d="M20.6472 32.0254C20.0973 32.0254 19.5699 32.2438 19.181 32.6327C18.7922 33.0216 18.5737 33.549 18.5737 34.0989V38.2459C18.5737 38.7958 18.7922 39.3232 19.181 39.7121C19.5699 40.1009 20.0973 40.3194 20.6472 40.3194C21.1972 40.3194 21.7246 40.1009 22.1134 39.7121C22.5023 39.3232 22.7207 38.7958 22.7207 38.2459V34.0989C22.7207 33.549 22.5023 33.0216 22.1134 32.6327C21.7246 32.2438 21.1972 32.0254 20.6472 32.0254Z" fill="black"/>
</svg>
